<svg xmlns="http://www.w3.org/2000/svg" width="16" height="16" viewBox="0 0 16 16">
  <path id="icons8-whatsapp" d="M10,2A7.967,7.967,0,0,0,3.038,13.9l-1.025,3.66a.348.348,0,0,0,.418.431l3.816-.946A7.992,7.992,0,1,0,10,2Zm0,.7A7.3,7.3,0,1,1,6.439,16.377a.348.348,0,0,0-.253-.034l-3.342.828.9-3.2a.348.348,0,0,0-.035-.271A7.3,7.3,0,0,1,10,2.7ZM7.093,5.826a1.106,1.106,0,0,0-.8.365A2.709,2.709,0,0,0,5.478,8.12a4.1,4.1,0,0,0,.909,2.308h0c-.009-.012.124.181.3.414a11.018,11.018,0,0,0,.742.868,8.055,8.055,0,0,0,2.6,1.891,12.39,12.39,0,0,0,1.2.439,3.206,3.206,0,0,0,1.449.092,2.445,2.445,0,0,0,.912-.376,1.69,1.69,0,0,0,.751-.814,2.869,2.869,0,0,0,.163-.716,1.641,1.641,0,0,0,0-.274.477.477,0,0,0-.077-.273c-.162-.266-.345-.273-.537-.368-.106-.053-.409-.2-.713-.345s-.566-.272-.728-.33a.82.82,0,0,0-.407-.069.692.692,0,0,0-.461.3c-.1.145-.493.612-.613.749l-.039-.02c-.149-.074-.331-.136-.6-.279a4.97,4.97,0,0,1-.976-.677h0A5.745,5.745,0,0,1,8.312,9.348c.008-.01,0,0,.016-.015h0c.124-.122.234-.268.327-.375a1.734,1.734,0,0,0,.253-.41.769.769,0,0,0-.017-.667h0c.005.01-.039-.088-.087-.2s-.109-.26-.174-.416c-.13-.312-.276-.663-.362-.868h0a.905.905,0,0,0-.42-.5.672.672,0,0,0-.346-.06h0C7.374,5.828,7.233,5.826,7.093,5.826Zm0,.7c.134,0,.266,0,.377.007s.107.006.085,0,.008-.014.073.14c.085.2.231.553.361.866.065.157.126.3.175.419s.075.18.106.241h0c.03.059.027.021.017.042A1.013,1.013,0,0,1,8.13,8.5c-.113.13-.228.275-.289.336a.748.748,0,0,0-.21.294.673.673,0,0,0,.065.544,6.365,6.365,0,0,0,1.212,1.489,5.689,5.689,0,0,0,1.111.771c.309.163.561.258.617.286a.781.781,0,0,0,.45.1.677.677,0,0,0,.41-.229h0c.124-.141.493-.562.67-.821.008,0,.005,0,.064.022h0c.027.01.363.16.663.3s.6.291.7.34c.143.071.21.117.228.117a.815.815,0,0,1,0,.114,2.213,2.213,0,0,1-.124.54,1.312,1.312,0,0,1-.468.463,2.163,2.163,0,0,1-.642.276,2.493,2.493,0,0,1-1.139-.068,11.625,11.625,0,0,1-1.139-.415,7.434,7.434,0,0,1-2.372-1.73,10.338,10.338,0,0,1-.695-.813c-.167-.217-.24-.33-.3-.41h0A3.758,3.758,0,0,1,6.174,8.12,1.833,1.833,0,0,1,6.8,6.664.412.412,0,0,1,7.093,6.522Z" transform="translate(-2 -2)"/>
</svg>
